<svg xmlns="http://www.w3.org/2000/svg" version="1.1" xmlns:xlink="http://www.w3.org/1999/xlink" xmlns:svgjs="http://svgjs.dev/svgjs" width="1000" height="623" viewBox="0 0 1000 623"><g transform="matrix(1,0,0,1,-0.6060606060606233,0.2522267206477409)"><svg viewBox="0 0 396 247" data-background-color="#ffffff" preserveAspectRatio="xMidYMid meet" height="623" width="1000" xmlns="http://www.w3.org/2000/svg" xmlns:xlink="http://www.w3.org/1999/xlink"><g id="tight-bounds" transform="matrix(1,0,0,1,0.2400000000000091,-0.09999999999999432)"><svg viewBox="0 0 395.52 247.2" height="247.2" width="395.52"><g><svg></svg></g><g><svg viewBox="0 0 395.52 247.2" height="247.2" width="395.52"><g transform="matrix(1,0,0,1,75.54432,93.99342866649862)"><svg viewBox="0 0 244.43135999999998 59.213142667002764" height="59.213142667002764" width="244.43135999999998"><g><svg viewBox="0 0 244.43135999999998 59.213142667002764" height="59.213142667002764" width="244.43135999999998"><g><svg viewBox="0 0 244.43135999999998 59.213142667002764" height="59.213142667002764" width="244.43135999999998"><g><svg viewBox="0 0 244.43135999999998 59.213142667002764" height="59.213142667002764" width="244.43135999999998"><g><svg viewBox="0 0 244.43135999999998 59.213142667002764" height="59.213142667002764" width="244.43135999999998"><g><svg viewBox="0 0 244.43135999999998 59.213142667002764" height="59.213142667002764" width="244.43135999999998"><g transform="matrix(1,0,0,1,0,0)"><svg width="244.43135999999998" viewBox="2.25 -38.79999923706055 198.3300018310547 48.04999923706055" height="59.213142667002764" data-palette-color="#e6b17e"><path d="M2.25-12.95L2.25-12.95Q2.25-16.45 3.33-19.07 4.4-21.7 6.15-23.45 7.9-25.2 10.18-26.1 12.45-27 14.85-27L14.85-27Q20.45-27 23.7-23.58 26.95-20.15 26.95-13.5L26.95-13.5Q26.95-12.85 26.9-12.08 26.85-11.3 26.8-10.7L26.8-10.7 9.9-10.7Q10.15-8.4 12.05-7.05 13.95-5.7 17.15-5.7L17.15-5.7Q19.2-5.7 21.18-6.08 23.15-6.45 24.4-7L24.4-7 25.4-0.95Q24.8-0.65 23.8-0.35 22.8-0.05 21.58 0.18 20.35 0.4 18.95 0.55 17.55 0.7 16.15 0.7L16.15 0.7Q12.6 0.7 9.98-0.35 7.35-1.4 5.63-3.23 3.9-5.05 3.08-7.55 2.25-10.05 2.25-12.95ZM9.9-15.8L19.75-15.8Q19.7-16.75 19.43-17.65 19.15-18.55 18.57-19.25 18-19.95 17.13-20.4 16.25-20.85 14.95-20.85L14.95-20.85Q13.7-20.85 12.8-20.43 11.9-20 11.3-19.3 10.7-18.6 10.38-17.68 10.05-16.75 9.9-15.8L9.9-15.8ZM46.05 0L39.85 0Q37.3-5 34.67-11.7 32.05-18.4 29.7-26.3L29.7-26.3 37.6-26.3Q38.1-24.35 38.77-22.08 39.45-19.8 40.17-17.48 40.9-15.15 41.62-12.95 42.35-10.75 43.05-8.95L43.05-8.95Q43.7-10.75 44.45-12.95 45.2-15.15 45.92-17.48 46.65-19.8 47.32-22.08 48-24.35 48.5-26.3L48.5-26.3 56.2-26.3Q53.85-18.4 51.22-11.7 48.6-5 46.05 0L46.05 0ZM58.25-12.95L58.25-12.95Q58.25-16.45 59.32-19.07 60.4-21.7 62.15-23.45 63.9-25.2 66.17-26.1 68.45-27 70.84-27L70.84-27Q76.45-27 79.7-23.58 82.95-20.15 82.95-13.5L82.95-13.5Q82.95-12.85 82.9-12.08 82.84-11.3 82.8-10.7L82.8-10.7 65.9-10.7Q66.15-8.4 68.05-7.05 69.95-5.7 73.15-5.7L73.15-5.7Q75.2-5.7 77.17-6.08 79.15-6.45 80.4-7L80.4-7 81.4-0.95Q80.8-0.65 79.8-0.35 78.8-0.05 77.57 0.18 76.34 0.4 74.95 0.55 73.55 0.7 72.15 0.7L72.15 0.7Q68.59 0.7 65.97-0.35 63.35-1.4 61.62-3.23 59.9-5.05 59.07-7.55 58.25-10.05 58.25-12.95ZM65.9-15.8L75.75-15.8Q75.7-16.75 75.42-17.65 75.15-18.55 74.57-19.25 74-19.95 73.12-20.4 72.25-20.85 70.95-20.85L70.95-20.85Q69.7-20.85 68.8-20.43 67.9-20 67.3-19.3 66.7-18.6 66.37-17.68 66.05-16.75 65.9-15.8L65.9-15.8ZM88.69 0L88.69-25.4Q90.59-25.95 93.59-26.43 96.59-26.9 99.89-26.9L99.89-26.9Q103.24-26.9 105.47-26.03 107.69-25.15 108.99-23.55 110.29-21.95 110.84-19.75 111.39-17.55 111.39-14.85L111.39-14.85 111.39 0 103.94 0 103.94-13.95Q103.94-17.55 102.99-19.05 102.04-20.55 99.44-20.55L99.44-20.55Q98.64-20.55 97.74-20.48 96.84-20.4 96.14-20.3L96.14-20.3 96.14 0 88.69 0ZM117.89-10.75L117.89-32.85 125.34-34.05 125.34-26.3 134.29-26.3 134.29-20.1 125.34-20.1 125.34-10.85Q125.34-8.5 126.17-7.1 126.99-5.7 129.49-5.7L129.49-5.7Q130.69-5.7 131.97-5.93 133.24-6.15 134.29-6.55L134.29-6.55 135.34-0.75Q133.99-0.2 132.34 0.2 130.69 0.6 128.29 0.6L128.29 0.6Q125.24 0.6 123.24-0.23 121.24-1.05 120.04-2.53 118.84-4 118.37-6.1 117.89-8.2 117.89-10.75L117.89-10.75ZM147.79-26.3L147.79 0 140.34 0 140.34-26.3 147.79-26.3ZM148.49-33.9L148.49-33.9Q148.49-31.85 147.16-30.68 145.84-29.5 144.04-29.5L144.04-29.5Q142.24-29.5 140.91-30.68 139.59-31.85 139.59-33.9L139.59-33.9Q139.59-35.95 140.91-37.13 142.24-38.3 144.04-38.3L144.04-38.3Q145.84-38.3 147.16-37.13 148.49-35.95 148.49-33.9ZM166.19-38.8L166.19-38.8Q168.29-38.8 170.04-38.38 171.79-37.95 172.74-37.55L172.74-37.55 171.29-31.6Q170.29-32.05 169.11-32.27 167.94-32.5 166.94-32.5L166.94-32.5Q165.59-32.5 164.66-32.13 163.74-31.75 163.21-31.1 162.69-30.45 162.46-29.55 162.24-28.65 162.24-27.6L162.24-27.6 162.24-26.3 171.44-26.3 171.44-20.1 162.24-20.1 162.24 0 154.79 0 154.79-27.7Q154.79-32.8 157.66-35.8 160.54-38.8 166.19-38.8ZM192.88-26.3L200.58-26.3Q198.33-18.7 195.88-12.05 193.43-5.4 190.53 0.85L190.53 0.85Q189.48 3.1 188.43 4.67 187.38 6.25 186.13 7.28 184.88 8.3 183.31 8.78 181.73 9.25 179.63 9.25L179.63 9.25Q177.88 9.25 176.41 8.93 174.93 8.6 173.98 8.2L173.98 8.2 175.28 2.25Q176.43 2.65 177.33 2.8 178.23 2.95 179.23 2.95L179.23 2.95Q181.23 2.95 182.31 1.88 183.38 0.8 184.13-1.1L184.13-1.1Q181.58-6.1 179.03-12.33 176.48-18.55 174.23-26.3L174.23-26.3 182.13-26.3Q182.63-24.35 183.31-22.08 183.98-19.8 184.73-17.48 185.48-15.15 186.26-12.95 187.03-10.75 187.73-8.95L187.73-8.95Q188.38-10.75 189.08-12.95 189.78-15.15 190.46-17.48 191.13-19.8 191.76-22.08 192.38-24.35 192.88-26.3L192.88-26.3Z" opacity="1" transform="matrix(1,0,0,1,0,0)" fill="#e6b17e" class="undefined-text-0" data-fill-palette-color="primary" id="text-0"></path></svg></g></svg></g></svg></g></svg></g><g></g></svg></g></svg></g></svg></g><g><path d="M120.667 80.015A122.216 122.216 0 0 1 274.853 80.015L269.514 80.015A116.876 116.876 0 0 0 126.006 80.015L120.667 80.015M120.667 167.185A122.216 122.216 0 0 0 274.853 167.185L269.514 167.185A116.876 116.876 0 0 1 126.006 167.185L120.667 167.185" fill="#e6b17e" stroke="transparent" data-fill-palette-color="tertiary"></path></g></svg></g><defs></defs></svg><rect width="395.52" height="247.2" fill="none" stroke="none" visibility="hidden"></rect></g></svg></g></svg>